<?xml version="1.0" encoding="utf-8"?>
<!-- Generator: Adobe Illustrator 17.1.0, SVG Export Plug-In . SVG Version: 6.00 Build 0)  -->
<!DOCTYPE svg PUBLIC "-//W3C//DTD SVG 1.1//EN" "http://www.w3.org/Graphics/SVG/1.1/DTD/svg11.dtd">
<svg version="1.1" id="Layer_1" xmlns="http://www.w3.org/2000/svg" xmlns:xlink="http://www.w3.org/1999/xlink" x="0px" y="0px"
	 viewBox="0 0 292 55" enable-background="new 0 0 292 55" xml:space="preserve">
<g>
	<g>
		<linearGradient id="SVGID_1_" gradientUnits="userSpaceOnUse" x1="216.9057" y1="51.168" x2="216.9057" y2="2.428">
			<stop  offset="0" style="stop-color:#CB272C"/>
			<stop  offset="1" style="stop-color:#BC1F24"/>
		</linearGradient>
		<path fill="url(#SVGID_1_)" d="M241.3,24.9c-5.7,0-9.4,3.9-10.4,9.6c-1.3,3.7-3.9,7.6-6.3,7.6c-2.6,0-2.7-5.4-1.8-12.1
			c3.4,0.4,5.5,0.8,5.5,0.8l1-6c-1.5-0.2-3.4-0.5-5.6-0.6c1.8-9.7,4.6-19.8,4.6-19.8h-5.4c0,0-3.3,8.7-5.2,19.6
			c-5,0-10.7,0.5-16.7,2c0,0,0,0,0,0h0c0,0,0,0,0,0c-7-3.7-8.2-7.1-8.2-10c0-1.9,0.8-5.8,3.9-7.1c2.9-1.2,5.6-0.9,7.9,1.9l3.9-1.1
			c0,0-1.4-7.2-10-7.2c-10,0-13.8,6.5-13.8,15.9c0,4.4,2.7,8.3,5.9,11.4l-0.5,0.3l0,0c-0.9,0.4-5.5,2.9-6.8,6.7
			c-3.1,8.7,2.7,14.5,14,14.5c6.1,0,15.5-0.9,15.5-11.5c0-4.3-1.3-7.5-6.2-10.7c3.5-0.1,7.1,0.1,10.3,0.4c-0.3,3-0.5,6-0.5,9
			c0.2,9.8,2,12.7,5.8,12.7c4.6,0,7.3-3.4,8.3-5.3c0.3-0.5,0.5-1,0.8-1.5c1,3.7,3.1,6.8,6.8,6.8c7.4,0,12.2-7.3,12.9-13.1
			C252.1,31.4,248.3,24.9,241.3,24.9z M197.7,43.5c-5.2,0-15.4-3.6-5.9-11.3l0,0h0c0,0,0,0,0,0l0,0c0.3-0.2,0.7-0.4,1.1-0.6
			c2.8,2.3,5.5,4,6.7,4.9C204.5,40.2,201.1,43.5,197.7,43.5z M245.6,38c-0.3,2.6-2.5,5.9-5.9,5.9v0c-2.7,0-3.5-3.6-3.5-6
			c0-3.4,1.8-5.9,4.8-5.9C244.3,32.1,246,35,245.6,38z"/>
		<linearGradient id="SVGID_2_" gradientUnits="userSpaceOnUse" x1="279.8388" y1="50.9333" x2="279.8388" y2="24.933">
			<stop  offset="0" style="stop-color:#CB272C"/>
			<stop  offset="1" style="stop-color:#BC1F24"/>
		</linearGradient>
		<path fill="url(#SVGID_2_)" d="M287.4,42.1c-1.3,1.4-3.3,2.6-6.7,2.6v0c-2.2,0-3-1.2-3-1.2s9.7-7.5,9.5-12c-0.3-4.5-2.7-6.5-6-6.5
			c-6.9,0-11,5.4-10.8,12.9c0.3,17.1,10.5,13.9,15.1,9.9c2-1.7,3.2-3.4,3.9-4.9L287.4,42.1z M279.5,30c1.9,0,2.1,1.7,2.1,2.3
			c0,3.2-5.6,7.7-5.6,7.7C274.9,36,276.3,30,279.5,30z"/>
		<linearGradient id="SVGID_3_" gradientUnits="userSpaceOnUse" x1="263.0225" y1="50.09" x2="263.0225" y2="24.915">
			<stop  offset="0" style="stop-color:#CB272C"/>
			<stop  offset="1" style="stop-color:#BC1F24"/>
		</linearGradient>
		<path fill="url(#SVGID_3_)" d="M273.4,26.3c0,0-1.5-1.4-3.8-1.4l0,0c-6.8,0-9.6,5.3-9.6,5.3l0.3-4.4l-5.6-0.3l-2.1,24.2l6.3,0.3
			l1-11.6c0.4-5.5,4.6-8.3,6.8-8.3c1.9,0,3.2,1.3,3.2,1.3S270.9,28.1,273.4,26.3z"/>
	</g>
	<g>
		<linearGradient id="SVGID_4_" gradientUnits="userSpaceOnUse" x1="72.009" y1="51.2768" x2="72.009" y2="1.0012">
			<stop  offset="0" style="stop-color:#CB272C"/>
			<stop  offset="1" style="stop-color:#BC1F24"/>
		</linearGradient>
		<path fill="url(#SVGID_4_)" d="M136,24.6c-7,0-9.7,4.2-9.7,4.2c1.5-12,6.6-27,6.6-27h-6.1c0,0-7.1,18.5-6.8,36.1l0,0.7
			c-1.8,2.1-3.4,3.8-3.9,3.8c-1,0-0.9-1.2-0.5-4.4c0,0,0.8-4.4,0.8-6.6c0-4.7-2.7-6.7-6-6.7c-5.6,0-8.6,3.5-9.5,4.9
			c-0.6-3.4-3-4.9-5.9-4.9c-7,0-9.8,5.4-9.8,5.4l0.3-4.5l-7.3,0l-1.4,16.2c-1.4,2.3-2.8,4-4,4c-1.9,0,0.7-17.5,1-20.2h-6
			c0,0-2.8,19.3-8.4,19.3c-4.8,0-1.7-15.4-1-19.3l-7,0l-0.1,0.5c-0.8,4.2-3.9,15.7-10.8,15.7c-7.3,0,3.9-39.5,3.9-39.5H37
			c0,0-3.2,8.1-5.2,18.8h-6.5c0.2-2.2,0.2-4.4,0.2-6.6C25.2-3.1,14.9,0.2,10.2,4.2C5.8,8,2.3,14.9,2,20.2C2.4,20.3,5.5,21,5.5,21
			S7.8,10.5,15,10.5s-3.9,39.7-3.9,39.7h7.6c0,0,3.8-9.9,5.8-22.1h6.2c-0.4,3.2-0.6,6.4-0.5,9.6c0.3,17.5,10.6,14.2,15.3,10.2
			c2.1-1.8,3.9-4.2,5.3-6.8l0,0c0.8,7.3,3.8,9.5,7.1,9.6c2.8,0.1,5.9-1.5,7.8-3.2c0.6-0.5,1.1-1.1,1.5-1.6c0.7,3.5,2.4,5,4.3,5
			c1.7,0,3.4-1,4.7-2.2l-0.1,1.5h8.1l1.1-11.9c0.4-5.6,4.7-8.5,7-8.5c3,0,1,9.6-0.4,20.3h6.7c0.8-4.7,1.7-8.7,2.2-13.1
			c0.9-4.8,4.8-7.2,6.9-7.2c1.6,0,1.8,2.9,1.3,7.3l-0.1,0.6c-1.3,9.7-1.5,13.4,1.4,13.4c2.1,0,4.2-1.5,5.7-3.2
			c0.6-0.7,2.4-3,4.3-5.6c1.7,12.3,9.3,9.3,13.5,5.7c4.6-4,8.3-11.4,8.3-16.8C142,26.6,139.3,24.6,136,24.6z M135.4,35.7
			c-1.4,3.1-4.3,9.1-7.8,9.1c-1.4,0-1.7-5.1-1.7-8c0-5.6,4.9-7,7.2-7C136.4,29.9,137.1,32,135.4,35.7z"/>
		<linearGradient id="SVGID_5_" gradientUnits="userSpaceOnUse" x1="158.3156" y1="51.2058" x2="158.3156" y2="1.68">
			<stop  offset="0" style="stop-color:#CB272C"/>
			<stop  offset="1" style="stop-color:#BC1F24"/>
		</linearGradient>
		<path fill="url(#SVGID_5_)" d="M171.6,42.1c-1.3,1.4-3.4,2.6-6.8,2.6c-0.8,0-1.4-0.2-1.9-0.6h0c5-4.8,8.1-10,8.2-11.6
			c0.1-0.5,0.2-1,0.2-1.4c0-4.7-2.7-6.7-6-6.7c-7,0-11.1,5.6-11,13.3c0,2.3,0.3,4.3,0.6,6c-1.3,0.7-2.4,1.2-2.7,1.2
			c-7.3,0,3.7-43.2,3.7-43.2h-6.1c0,0-7.1,18.5-6.8,36.1c0.3,17.4,9.4,14,14.1,11c3.5,4.4,9.3,2,12.5-0.8c2-1.8,3.2-3.5,4-5
			L171.6,42.1z M160.1,40.5c-1.3-4.4,0.2-11,3.8-11c2.1,0,2.4,1.8,2.4,2.5c0,0,0,0,0,0v0c0,0,0,0,0,0
			C166.4,35.6,160.1,40.5,160.1,40.5z"/>
	</g>
</g>
</svg>
